<svg width="100%" viewBox="0 0 680 280" role="img" xmlns="http://www.w3.org/2000/svg">
  <title>Hybrid SQL Assistant — GitHub Banner</title>
  <desc>Green-themed banner for GitHub README</desc>

  <rect width="680" height="280" fill="#0d1f0f"/>

  <g stroke="#22c55e" stroke-width="0.3" opacity="0.08">
    <line x1="0" y1="40" x2="680" y2="40"/>
    <line x1="0" y1="80" x2="680" y2="80"/>
    <line x1="0" y1="120" x2="680" y2="120"/>
    <line x1="0" y1="160" x2="680" y2="160"/>
    <line x1="0" y1="200" x2="680" y2="200"/>
    <line x1="0" y1="240" x2="680" y2="240"/>
    <line x1="40" y1="0" x2="40" y2="280"/>
    <line x1="120" y1="0" x2="120" y2="280"/>
    <line x1="200" y1="0" x2="200" y2="280"/>
    <line x1="280" y1="0" x2="280" y2="280"/>
    <line x1="360" y1="0" x2="360" y2="280"/>
    <line x1="440" y1="0" x2="440" y2="280"/>
    <line x1="520" y1="0" x2="520" y2="280"/>
    <line x1="600" y1="0" x2="600" y2="280"/>
  </g>

  <ellipse cx="340" cy="100" rx="300" ry="120" fill="#16a34a" opacity="0.07"/>
  <rect x="0" y="0" width="680" height="3" fill="#22c55e" opacity="0.8"/>

  <rect x="12" y="10" width="36" height="18" rx="3" fill="none" stroke="#22c55e" stroke-width="0.5" opacity="0.4"/>
  <text x="30" y="23" text-anchor="middle" font-family="monospace" font-size="9" fill="#4ade80" opacity="0.5">A1</text>
  <rect x="632" y="10" width="36" height="18" rx="3" fill="none" stroke="#22c55e" stroke-width="0.5" opacity="0.4"/>
  <text x="650" y="23" text-anchor="middle" font-family="monospace" font-size="9" fill="#4ade80" opacity="0.5">Z1</text>

  <rect x="280" y="32" width="44" height="44" rx="10" fill="#16a34a" opacity="0.9"/>
  <rect x="278" y="30" width="44" height="44" rx="10" fill="none" stroke="#4ade80" stroke-width="1" opacity="0.5"/>
  <text x="302" y="62" text-anchor="middle" font-size="22" font-family="monospace" fill="#f0fdf4">⊞</text>

  <text x="340" y="104" text-anchor="middle" font-family="monospace" font-size="30" font-weight="700" fill="#bbf7d0">Hybrid SQL</text>
  <text x="340" y="136" text-anchor="middle" font-family="monospace" font-size="30" font-weight="700" fill="#4ade80">Assistant</text>
  <text x="340" y="162" text-anchor="middle" font-family="monospace" font-size="12" fill="#86efac" opacity="0.75">Естественный язык → SQL → Результаты</text>

  <line x1="100" y1="176" x2="580" y2="176" stroke="#22c55e" stroke-width="0.5" opacity="0.4"/>

  <rect x="52" y="188" width="112" height="24" rx="12" fill="#052e16" stroke="#16a34a" stroke-width="0.8"/>
  <text x="108" y="204" text-anchor="middle" font-family="monospace" font-size="11" fill="#4ade80">Excel / CSV</text>

  <rect x="178" y="188" width="112" height="24" rx="12" fill="#052e16" stroke="#16a34a" stroke-width="0.8"/>
  <text x="234" y="204" text-anchor="middle" font-family="monospace" font-size="11" fill="#4ade80">Mistral LLM</text>

  <rect x="304" y="188" width="76" height="24" rx="12" fill="#052e16" stroke="#16a34a" stroke-width="0.8"/>
  <text x="342" y="204" text-anchor="middle" font-family="monospace" font-size="11" fill="#4ade80">SQLite</text>

  <rect x="394" y="188" width="112" height="24" rx="12" fill="#052e16" stroke="#16a34a" stroke-width="0.8"/>
  <text x="450" y="204" text-anchor="middle" font-family="monospace" font-size="11" fill="#4ade80">Python 3.8+</text>

  <rect x="520" y="188" width="108" height="24" rx="12" fill="#16a34a" stroke="#4ade80" stroke-width="0.8"/>
  <text x="574" y="204" text-anchor="middle" font-family="monospace" font-size="11" fill="#f0fdf4">MIT License</text>

  <text x="340" y="238" text-anchor="middle" font-family="monospace" font-size="10" fill="#22c55e" opacity="0.5">github.com/SdvSeven/Exel-Automatic</text>
  <rect x="0" y="277" width="680" height="3" fill="#22c55e" opacity="0.4"/>

  <circle cx="24" cy="252" r="3" fill="#22c55e" opacity="0.3"/>
  <circle cx="36" cy="252" r="3" fill="#22c55e" opacity="0.2"/>
  <circle cx="48" cy="252" r="3" fill="#22c55e" opacity="0.1"/>
  <circle cx="656" cy="252" r="3" fill="#22c55e" opacity="0.3"/>
  <circle cx="644" cy="252" r="3" fill="#22c55e" opacity="0.2"/>
  <circle cx="632" cy="252" r="3" fill="#22c55e" opacity="0.1"/>
</svg>
